HIERARCHY
ROOT Hips
{
  OFFSET 53.8756 95.61 -15.361
  CHANNELS 6 Xposition Yposition Zposition Zrotation Xrotation Yrotation
  JOINT spine
  {
    OFFSET 0 8.13249 0.467659
    CHANNELS 3 Zrotation Xrotation Yrotation
    JOINT spine1
    {
      OFFSET 0 10.3498 0
      CHANNELS 3 Zrotation Xrotation Yrotation
      JOINT spine2
      {
        OFFSET 0 9.91699 0
        CHANNELS 3 Zrotation Xrotation Yrotation
        JOINT Neck
        {
          OFFSET 0 25.461 1.2139
          CHANNELS 3 Zrotation Xrotation Yrotation
          JOINT Head
          {
            OFFSET 0 7.69245 0
            CHANNELS 3 Zrotation Xrotation Yrotation
            End Site
            {
              OFFSET 0 18.62 -6.14063
            }
          }
        }
        JOINT RightShoulder
        {
          OFFSET -4.17575 10.7096 -0.581445
          CHANNELS 3 Zrotation Xrotation Yrotation
          JOINT RightArm
          {
            OFFSET 0 14.0466 0
            CHANNELS 3 Zrotation Xrotation Yrotation
            JOINT RightArmRoll
            {
              OFFSET 0 7.09098 0
              CHANNELS 3 Zrotation Xrotation Yrotation
              JOINT RightForeArm
              {
                OFFSET 0 20.6535 0
                CHANNELS 3 Zrotation Xrotation Yrotation
                JOINT RightForeArmRoll
                {
                  OFFSET 0 7.95718 0
                  CHANNELS 3 Zrotation Xrotation Yrotation
                  JOINT RightHand
                  {
                    OFFSET 0 15.9683 0
                    CHANNELS 3 Zrotation Xrotation Yrotation
                    End Site
                    {
                      OFFSET 0 0 0
                    }
                  }
                }
              }
            }
          }
        }
        JOINT LeftShoulder
        {
          OFFSET 4.17575 10.7096 -0.581445
          CHANNELS 3 Zrotation Xrotation Yrotation
          JOINT LeftArm
          {
            OFFSET 0 14.0466 0
            CHANNELS 3 Zrotation Xrotation Yrotation
            JOINT LeftArmRoll
            {
              OFFSET 0 7.09099 0
              CHANNELS 3 Zrotation Xrotation Yrotation
              JOINT LeftForeArm
              {
                OFFSET 0 20.6535 0
                CHANNELS 3 Zrotation Xrotation Yrotation
                JOINT LeftForeArmRoll
                {
                  OFFSET 0 7.95718 0
                  CHANNELS 3 Zrotation Xrotation Yrotation
                  JOINT LeftHand
                  {
                    OFFSET 0 15.9683 0
                    CHANNELS 3 Zrotation Xrotation Yrotation
                    End Site
                    {
                      OFFSET 0 0 0
                    }
                  }
                }
              }
            }
          }
        }
      }
    }
  }
  JOINT RightUpLeg
  {
    OFFSET -7.20834 -1.32182 -1.10884
    CHANNELS 3 Zrotation Xrotation Yrotation
    JOINT RightUpLegRoll
    {
      OFFSET 0 18.7238 0
      CHANNELS 3 Zrotation Xrotation Yrotation
      JOINT RightLeg
      {
        OFFSET 0 -23.1866 0
        CHANNELS 3 Zrotation Xrotation Yrotation
        JOINT RightLegRoll
        {
          OFFSET 0 23.2624 0
          CHANNELS 3 Zrotation Xrotation Yrotation
          JOINT RightFoot
          {
            OFFSET 0 19.3621 0
            CHANNELS 3 Zrotation Xrotation Yrotation
            JOINT RightToeBase
            {
              OFFSET 0 16.1857 0
              CHANNELS 3 Zrotation Xrotation Yrotation
              End Site
              {
                OFFSET 0.00686052 7.83863 -0.903522
              }
            }
          }
        }
      }
    }
  }
  JOINT LeftUpLeg
  {
    OFFSET 7.20834 -1.32182 -1.10884
    CHANNELS 3 Zrotation Xrotation Yrotation
    JOINT LeftUpLegRoll
    {
      OFFSET 0 18.7239 0
      CHANNELS 3 Zrotation Xrotation Yrotation
      JOINT LeftLeg
      {
        OFFSET 0 23.1865 0
        CHANNELS 3 Zrotation Xrotation Yrotation
        JOINT LeftLegRoll
        {
          OFFSET 0 23.4775 0
          CHANNELS 3 Zrotation Xrotation Yrotation
          JOINT LeftFoot
          {
            OFFSET 0 19.147 0
            CHANNELS 3 Zrotation Xrotation Yrotation
            JOINT LeftToeBase
            {
              OFFSET 0 16.1857 0
              CHANNELS 3 Zrotation Xrotation Yrotation
              End Site
              {
                OFFSET -0.0307459 7.83863 -0.903522
              }
            }
          }
        }
      }
    }
  }
}
MOTION
Frames: 12
Frame Time: 0.00208333
50.4061 95.996 2.71212 -1.03673 -4.10092 0.790605 0.558997 -0.745007 -0.00788746 1.11912 2.51217 -0.0807937 1.12131 4.15706 -0.0996315 -1.72772 11.087 -3.68832 0.0826882 0.579966 -4.15037 60.2523 -9.80474 -6.10695 111.417 21.1602 15.5775 6.17724e-007 7.33684e-009 -3.16176e-006 8.67581 0.223491 -0.612426 -5.0621e-006 -2.60317e-006 -3 8.02907 -4.95145 0.697679 -60.9981 -6.125 3.90656 -109.587 21.7475 -6.32165 -1.36154e-006 -1.73665e-006 6.79893e-006 -8.8966 0.0690911 1.2793 7.28727e-006 -2.78351e-006 3.0575 -8.02906 -4.95148 -0.697665 175.937 3.42181 2.24492 180 7.01556e-015 178.961 178.653 14.7093 179.636 -1.97881e-006 7.56209e-007 0.303522 -20.4338 70.6489 21.9574 8.13649 25.2327 -3.48774 -170.509 1.78434 -2.21557 4.54188e-006 -4.6773e-006 -0.917871 0.555516 -13.2085 0.785964 3.39204e-006 -5.44247e-006 -0.09378 17.4931 70.2465 -21.4033 -8.12575 25.242 3.47603 
50.3644 95.9904 2.69877 -1.02612 -4.09011 0.831939 0.558164 -0.743619 -0.00870313 1.11781 2.51494 -0.0819749 1.12002 4.15983 -0.100792 -1.7429 11.0936 -3.69051 0.0974541 0.569973 -4.15502 60.2414 -9.80533 -6.10726 111.437 21.1554 15.564 6.17724e-007 7.33683e-009 -3.16176e-006 8.68132 0.239986 -0.614279 -5.0621e-006 -2.60317e-006 -3 8.02907 -4.95145 0.697679 -61.0051 -6.11878 3.90322 -109.575 21.766 -6.32022 -1.36154e-006 -1.73665e-006 6.79893e-006 -8.89456 0.0690915 1.279 7.28727e-006 -2.78351e-006 3.0575 -8.02906 -4.95148 -0.697665 175.945 3.44638 2.24623 180 7.01556e-015 178.961 178.641 14.7339 179.638 -1.97881e-006 7.56209e-007 0.303529 -20.4449 70.6623 21.9731 8.13649 25.2327 -3.48774 -170.503 1.8207 -2.21181 4.54188e-006 -4.6773e-006 -0.917853 0.566664 -13.2213 0.787791 3.39204e-006 -5.44247e-006 -0.0934859 17.492 70.2347 -21.3929 -8.12575 25.242 3.47603 
50.3417 95.985 2.68618 -1.01523 -4.07939 0.873255 0.557249 -0.742276 -0.00954113 1.11635 2.51762 -0.0831659 1.11858 4.1625 -0.10196 -1.75781 11.1005 -3.6927 0.112022 0.560197 -4.15963 60.2305 -9.80595 -6.10758 111.457 21.1502 15.5507 6.17724e-007 7.33685e-009 -3.16176e-006 8.6867 0.256749 -0.616152 -5.0621e-006 -2.60317e-006 -3 8.02907 -4.95145 0.697679 -61.0121 -6.11245 3.89982 -109.562 21.7843 -6.31878 -1.36154e-006 -1.73665e-006 6.79893e-006 -8.8926 0.0690918 1.27873 7.28727e-006 -2.78351e-006 3.0575 -8.02906 -4.95148 -0.697665 175.951 3.47084 2.24802 180 7.01556e-015 178.961 178.629 14.7589 179.639 -1.97881e-006 7.56209e-007 0.30354 -20.4563 70.6758 21.989 8.13649 25.2327 -3.48774 -170.497 1.85697 -2.20759 4.54188e-006 -4.6773e-006 -0.917823 0.577934 -13.2352 0.789656 3.39204e-006 -5.44247e-006 -0.0933339 17.4927 70.224 -21.3836 -8.12575 25.242 3.47603 
50.3113 95.9844 2.67856 -1.00414 -4.06874 0.914559 0.556277 -0.740965 -0.0103948 1.11479 2.52023 -0.0843637 1.11705 4.16512 -0.103133 -1.77254 11.1074 -3.69489 0.126451 0.550572 -4.1642 60.2196 -9.80658 -6.10792 111.478 21.1448 15.5376 6.17724e-007 7.33683e-009 -3.16176e-006 8.69197 0.273699 -0.618038 -5.0621e-006 -2.60317e-006 -3 8.02907 -4.95145 0.697679 -61.019 -6.10605 3.89637 -109.549 21.8025 -6.31732 -1.36154e-006 -1.73665e-006 6.79893e-006 -8.89071 0.0690922 1.27847 7.28727e-006 -2.78351e-006 3.0575 -8.02906 -4.95148 -0.697665 175.957 3.49523 2.25015 180 7.01556e-015 178.962 178.617 14.784 179.641 -1.97881e-006 7.56209e-007 0.303554 -20.4679 70.6893 22.005 8.13649 25.2327 -3.48774 -170.492 1.89318 -2.20305 4.54188e-006 -4.6773e-006 -0.917785 0.589292 -13.2498 0.791549 3.39204e-006 -5.44247e-006 -0.0932815 17.4946 70.2139 -21.375 -8.12575 25.242 3.47603 
50.2659 95.9789 2.66659 -0.992948 -4.05813 0.955855 0.555272 -0.739672 -0.0112573 1.11317 2.52281 -0.0855653 1.11545 4.1677 -0.104308 -1.78715 11.1144 -3.69708 0.1408 0.541033 -4.16877 60.2087 -9.80722 -6.10826 111.498 21.1393 15.5246 6.17724e-007 7.33683e-009 -3.16176e-006 8.69718 0.290756 -0.619932 -5.0621e-006 -2.60317e-006 -3 8.02907 -4.95145 0.697679 -61.026 -6.09961 3.8929 -109.537 21.8206 -6.31587 -1.36154e-006 -1.73665e-006 6.79893e-006 -8.88885 0.0690925 1.27821 7.28727e-006 -2.78351e-006 3.0575 -8.02906 -4.95148 -0.697665 175.963 3.51958 2.25247 180 7.01556e-015 178.962 178.605 14.8093 179.642 -1.97881e-006 7.56209e-007 0.303569 -20.4797 70.7029 22.0211 8.13649 25.2327 -3.48774 -170.488 1.92935 -2.19834 4.54188e-006 -4.6773e-006 -0.917743 0.6007 -13.2648 0.793457 3.39204e-006 -5.44247e-006 -0.0932859 17.4973 70.2043 -21.3668 -8.12575 25.242 3.47603 
50.2208 95.9748 2.65776 -0.981739 -4.04753 0.99715 0.554259 -0.738384 -0.0121222 1.11153 2.52537 -0.086768 1.11385 4.17027 -0.105485 -1.80174 11.1215 -3.69927 0.155127 0.531516 -4.17332 60.1978 -9.80787 -6.10861 111.519 21.1338 15.5117 6.17724e-007 7.33684e-009 -3.16176e-006 8.70238 0.30784 -0.621829 -5.0621e-006 -2.60317e-006 -3 8.02907 -4.95145 0.697679 -61.0329 -6.09316 3.88943 -109.524 21.8386 -6.31441 -1.36154e-006 -1.73665e-006 6.79893e-006 -8.887 0.0690929 1.27796 7.28727e-006 -2.78351e-006 3.0575 -8.02906 -4.95148 -0.697665 175.969 3.54392 2.25485 180 7.01556e-015 178.962 178.593 14.8346 179.644 -1.97881e-006 7.56209e-007 0.303584 -20.4915 70.7165 22.0372 8.13649 25.2327 -3.48774 -170.483 1.96552 -2.19358 4.54188e-006 -4.6773e-006 -0.9177 0.612121 -13.2799 0.795369 3.39204e-006 -5.44247e-006 -0.0933046 17.5001 70.1948 -21.3588 -8.12575 25.242 3.47603 
50.1763 95.9738 2.65686 -0.970606 -4.03691 1.03845 0.553262 -0.737086 -0.0129825 1.10993 2.52796 -0.0879687 1.11227 4.17285 -0.10666 -1.81639 11.1285 -3.70146 0.169492 0.521957 -4.17789 60.1869 -9.80851 -6.10895 111.539 21.1284 15.4987 6.17724e-007 7.33684e-009 -3.16176e-006 8.70762 0.324871 -0.623721 -5.0621e-006 -2.60317e-006 -3 8.02907 -4.95145 0.697679 -61.0398 -6.08673 3.88596 -109.512 21.8567 -6.31295 -1.36154e-006 -1.73665e-006 6.79893e-006 -8.88513 0.0690932 1.27771 7.28727e-006 -2.78351e-006 3.0575 -8.02906 -4.95148 -0.697665 175.975 3.56828 2.25712 180 7.01556e-015 178.963 178.582 14.8598 179.646 -1.97881e-006 7.56209e-007 0.303599 -20.5032 70.7301 22.0534 8.13649 25.2327 -3.48774 -170.479 2.00171 -2.18891 4.54188e-006 -4.6773e-006 -0.917659 0.623519 -13.2948 0.797274 3.39204e-006 -5.44247e-006 -0.0932948 17.5026 70.1851 -21.3506 -8.12575 25.242 3.47603 
50.1544 95.9719 2.64624 -0.95964 -4.02623 1.07975 0.552306 -0.735766 -0.0138317 1.1084 2.53059 -0.0891645 1.11076 4.17549 -0.107831 -1.83116 11.1354 -3.70365 0.183954 0.512289 -4.18247 60.176 -9.80913 -6.10928 111.559 21.1231 15.4856 6.17724e-007 7.33684e-009 -3.16176e-006 8.71292 0.341768 -0.625604 -5.0621e-006 -2.60317e-006 -3 8.02907 -4.95145 0.697679 -61.0468 -6.08035 3.88253 -109.499 21.8749 -6.3115 -1.36154e-006 -1.73665e-006 6.79893e-006 -8.88322 0.0690936 1.27744 7.28727e-006 -2.78351e-006 3.0575 -8.02906 -4.95148 -0.697665 175.981 3.59269 2.25916 180 7.01556e-015 178.963 178.57 14.8849 179.647 -1.97881e-006 7.56209e-007 0.303612 -20.5149 70.7436 22.0694 8.13649 25.2327 -3.48774 -170.473 2.03793 -2.18447 4.54188e-006 -4.6773e-006 -0.917624 0.634856 -13.3092 0.79916 3.39204e-006 -5.44247e-006 -0.0932139 17.5042 70.1748 -21.3418 -8.12575 25.242 3.47603 
50.1274 95.9705 2.62241 -0.948932 -4.01547 1.12106 0.551417 -0.73441 -0.014663 1.10698 2.53329 -0.0903526 1.10937 4.17819 -0.108997 -1.84615 11.1422 -3.70584 0.198572 0.502448 -4.1871 60.1651 -9.80974 -6.1096 111.58 21.118 15.4722 6.17724e-007 7.33683e-009 -3.16176e-006 8.71834 0.35845 -0.627471 -5.0621e-006 -2.60317e-006 -3 8.02907 -4.95145 0.697679 -61.0538 -6.07406 3.87915 -109.487 21.8933 -6.31007 -1.36154e-006 -1.73665e-006 6.79893e-006 -8.88124 0.069094 1.27716 7.28727e-006 -2.78351e-006 3.0575 -8.02906 -4.95148 -0.697665 175.988 3.61718 2.26081 180 7.01556e-015 178.963 178.558 14.9098 179.649 -1.97881e-006 7.56209e-007 0.303622 -20.5263 70.7571 22.0854 8.13649 25.2327 -3.48774 -170.468 2.07423 -2.18039 4.54188e-006 -4.6773e-006 -0.917598 0.646096 -13.3227 0.801016 3.39204e-006 -5.44247e-006 -0.0930193 17.5044 70.1637 -21.3322 -8.12575 25.242 3.47603 
50.0818 95.9669 2.61761 -0.938575 -4.0046 1.16239 0.550617 -0.733003 -0.0154697 1.10573 2.5361 -0.0915299 1.10814 4.181 -0.110155 -1.86143 11.1488 -3.70804 0.213403 0.49237 -4.19177 60.1543 -9.81032 -6.10991 111.6 21.1132 15.4585 6.17724e-007 7.33683e-009 -3.16176e-006 8.72393 0.374838 -0.629316 -5.0621e-006 -2.60317e-006 -3 8.02907 -4.95145 0.697679 -61.0608 -6.06787 3.87584 -109.474 21.9119 -6.30864 -1.36154e-006 -1.73665e-006 6.79893e-006 -8.87916 0.0690944 1.27686 7.28727e-006 -2.78351e-006 3.0575 -8.02906 -4.95148 -0.697665 175.996 3.64179 2.26192 180 7.01556e-015 178.964 178.546 14.9343 179.65 -1.97881e-006 7.56209e-007 0.303628 -20.5375 70.7705 22.1012 8.13649 25.2327 -3.48774 -170.461 2.11062 -2.17681 4.54188e-006 -4.6773e-006 -0.917584 0.657201 -13.3351 0.802828 3.39204e-006 -5.44247e-006 -0.0926683 17.5027 70.1515 -21.3215 -8.12575 25.242 3.47603 
50.0427 95.9641 2.61013 -0.928658 -3.99358 1.20375 0.549933 -0.731533 -0.0162451 1.10467 2.53903 -0.0926936 1.10711 4.18393 -0.111302 -1.87708 11.1551 -3.71024 0.228508 0.481988 -4.1965 60.1435 -9.81086 -6.11019 111.62 21.1088 15.4444 6.17724e-007 7.33683e-009 -3.16176e-006 8.72972 0.390851 -0.631135 -5.0621e-006 -2.60317e-006 -3 8.02907 -4.95145 0.697679 -61.0679 -6.06183 3.87261 -109.461 21.9308 -6.30724 -1.36154e-006 -1.73665e-006 6.79893e-006 -8.87697 0.0690948 1.27653 7.28727e-006 -2.78351e-006 3.0575 -8.02906 -4.95148 -0.697665 176.004 3.66654 2.26237 180 7.01556e-015 178.964 178.535 14.9585 179.651 -1.97881e-006 7.56209e-007 0.303629 -20.5482 70.7837 22.1167 8.13649 25.2327 -3.48774 -170.454 2.14713 -2.17387 4.54188e-006 -4.6773e-006 -0.917587 0.668135 -13.3461 0.804587 3.39204e-006 -5.44247e-006 -0.0921182 17.4986 70.1379 -21.3093 -8.12575 25.242 3.47603 
50.0159 95.9623 2.59849 -0.919274 -3.98239 1.24512 0.549389 -0.729985 -0.0169826 1.10387 2.54211 -0.0938408 1.10633 4.18702 -0.112438 -1.89318 11.1612 -3.71244 0.243945 0.47124 -4.20131 60.1328 -9.81136 -6.11044 111.64 21.1048 15.4299 6.17724e-007 7.33684e-009 -3.16176e-006 8.73575 0.406408 -0.632919 -5.0621e-006 -2.60317e-006 -3 8.02907 -4.95145 0.697679 -61.075 -6.05597 3.86949 -109.449 21.9501 -6.30585 -1.36154e-006 -1.73665e-006 6.79893e-006 -8.87463 0.0690952 1.27616 7.28727e-006 -2.78351e-006 3.0575 -8.02906 -4.95148 -0.697665 176.014 3.69146 2.26199 180 7.01556e-015 178.964 178.524 14.9822 179.653 -1.97881e-006 7.56209e-007 0.303624 -20.5585 70.7969 22.132 8.13649 25.2327 -3.48774 -170.445 2.18379 -2.17171 4.54188e-006 -4.6773e-006 -0.917608 0.67886 -13.3552 0.80628 3.39204e-006 -5.44247e-006 -0.0913264 17.4915 70.1225 -21.2954 -8.12575 25.242 3.47603 
